# xmcd
#
# Track frame offsets:
#	182
#	18770
#	37595
#	49422
#	63575
#	80362
#	96400
#	116437
#	144240
#	165317
#	193132
#	220995
#
# Disc length: 3145
#
# Revision: 1
# Processed by: cddbd v1.5.1PL0 Copyright (c) Steve Scherf et al.
# Submitted via: OrangeCD 4.3
# Normalized: r0:DSETVAR1,TDELIM( - )
#
DISCID=9a0c470c
DTITLE=Various Artist - Best Of Blues
DYEAR=1995
DGENRE=Blues
TTITLE0=Johnny Winter - Mad Blues
TTITLE1=Fleetwood Mac - Merry Go Round
TTITLE2=Chicken Shack - Baby's Got Me Crying
TTITLE3=Champion Jack Dupree - Postman Blues
TTITLE4=John Hammond - Hoo-Doo Blues
TTITLE5=Rising Sons - By And By (Poor Me)
TTITLE6=Muddy Waters - Jealous Hearted Man
TTITLE7=Stevie Ray Vaughan - Ain't Gone'n'Give Up On Love
TTITLE8=Otis Spann - I Need Some Air
TTITLE9=Mike Bloomfield - I Wonder Who
TTITLE10=Willie Dixon - Back Door Man
TTITLE11=Mick Taylor - Slow Blues
EXTD=
EXTT0=
EXTT1=
EXTT2=
EXTT3=
EXTT4=
EXTT5=
EXTT6=
EXTT7=
EXTT8=
EXTT9=
EXTT10=
EXTT11=
PLAYORDER=
